<svg xmlns="http://www.w3.org/2000/svg" viewBox="0 0 32 32" fill="none">
  <rect width="32" height="32" rx="8" fill="#171717"/>
  <path d="M15.5 5C12 5.2 9.5 6.5 8 8.5C6.5 10.5 6 12.5 6.5 14.5C7 16.5 8 18 9.5 19.5C11 21 13 22.5 15.5 23V5z" fill="white" opacity="0.95"/>
  <path d="M16.5 5C20 5.2 22.5 6.5 24 8.5C25.5 10.5 26 12.5 25.5 14.5C25 16.5 24 18 22.5 19.5C21 21 19 22.5 16.5 23V5z" fill="white" opacity="0.95"/>
  <path d="M16 4.5c.3 3-.5 6 0 9c.5 3-.3 6 0 9" stroke="#171717" stroke-width="1.4" stroke-linecap="round"/>
  <path d="M7.5 10c2.5.6 5 .2 8-.8" stroke="#171717" stroke-width="1.1" stroke-linecap="round"/>
  <path d="M7 14.5c3-.2 5.5.4 8.5-.8" stroke="#171717" stroke-width="1.1" stroke-linecap="round"/>
  <path d="M8.5 19c2-.4 4.5 0 7-.8" stroke="#171717" stroke-width="1.1" stroke-linecap="round"/>
  <path d="M24.5 10c-2.5.6-5 .2-8-.8" stroke="#171717" stroke-width="1.1" stroke-linecap="round"/>
  <path d="M25 14.5c-3-.2-5.5.4-8.5-.8" stroke="#171717" stroke-width="1.1" stroke-linecap="round"/>
  <path d="M23.5 19c-2-.4-4.5 0-7-.8" stroke="#171717" stroke-width="1.1" stroke-linecap="round"/>
</svg>
