<svg xmlns="http://www.w3.org/2000/svg" viewBox="0 0 24 24" fill="none">
  <!-- Sulci AI Logo — filled variant for dark backgrounds -->
  <path d="M11 3.5C7.5 4 5 6 4 8.5S3 13.5 4 16c1 2.5 3 4.5 5.5 5.5L11 22V3.5z" fill="currentColor"/>
  <path d="M13 3.5C16.5 4 19 6 20 8.5s1 5 0 7.5c-1 2.5-3 4.5-5.5 5.5L13 22V3.5z" fill="currentColor"/>
  <line x1="12" y1="3" x2="12" y2="22.5" stroke="white" stroke-width="2.8" stroke-linecap="round"/>
  <path d="M4.5 11c2.5.5 4.5 0 7-1.5" stroke="white" stroke-width="2" stroke-linecap="round"/>
  <path d="M19.5 11c-2.5.5-4.5 0-7-1.5" stroke="white" stroke-width="2" stroke-linecap="round"/>
</svg>
